# xmcd
#
# Track frame offsets:
#	150
#	18464
#	36430
#	61000
#	80964
#	98517
#	116962
#	132304
#	152035
#	172198
#	193684
#	210099
#	223162
#	237626
#
# Disc length: 3388 seconds
# Revision: 0
# Processed by: cddbd v1.5.2PL0 Copyright (c) Steve Scherf et al.
# Submitted via: dBpowerAMP V12.0
#
DISCID=cc0d3a0e
DTITLE=JP Soars - Full Moon In Memphis
DYEAR=2014
DGENRE=Blues
TTITLE0=Full Moon Night In Memphis
TTITLE1=Back To Broke
TTITLE2=Makes No Sense
TTITLE3=Somethin' Ain't Right
TTITLE4=Mean Old World
TTITLE5=Savin' All My Lovin'
TTITLE6=Reefer Man
TTITLE7=Way Back Home
TTITLE8=The Back Room
TTITLE9=Thorn In My Side
TTITLE10=Viper
TTITLE11=The Road Has Got Me Down
TTITLE12=Lil' Mamacita
TTITLE13=Missin' Your Kissin'
EXTD=
EXTT0=
EXTT1=
EXTT2=
EXTT3=
EXTT4=
EXTT5=
EXTT6=
EXTT7=
EXTT8=
EXTT9=
EXTT10=
EXTT11=
EXTT12=
EXTT13=
PLAYORDER=
